<svg width="1296" height="526" viewBox="0 0 1296 526" fill="none" xmlns="http://www.w3.org/2000/svg">
<g clip-path="url(#clip0_21_71)">
<mask id="mask0_21_71" style="mask-type:luminance" maskUnits="userSpaceOnUse" x="0" y="0" width="1307" height="526">
<path d="M1307 0H0V526H1307V0Z" fill="white"/>
</mask>
<g mask="url(#mask0_21_71)">
<mask id="mask1_21_71" style="mask-type:luminance" maskUnits="userSpaceOnUse" x="0" y="0" width="1307" height="526">
<path d="M1307 0H0V526H1307V0Z" fill="white"/>
<path d="M734.616 270.045C734.616 270.824 734.915 271.572 735.448 272.124C735.981 272.675 736.703 272.985 737.457 272.985C738.21 272.985 738.933 272.675 739.466 272.124C739.998 271.572 740.298 270.824 740.298 270.045C740.298 269.265 739.998 268.517 739.466 267.966C738.933 267.414 738.21 267.105 737.457 267.105C736.703 267.105 735.981 267.414 735.448 267.966C734.915 268.517 734.616 269.265 734.616 270.045ZM757.307 293.527C757.307 294.307 757.606 295.054 758.139 295.606C758.672 296.157 759.394 296.467 760.148 296.467C760.901 296.467 761.624 296.157 762.156 295.606C762.689 295.054 762.989 294.307 762.989 293.527C762.989 292.747 762.689 291.999 762.156 291.448C761.624 290.897 760.901 290.587 760.148 290.587C759.394 290.587 758.672 290.897 758.139 291.448C757.606 291.999 757.307 292.747 757.307 293.527ZM711.925 246.562C711.925 246.949 711.998 247.331 712.141 247.688C712.284 248.044 712.493 248.368 712.757 248.641C713.021 248.914 713.334 249.131 713.679 249.279C714.023 249.426 714.393 249.502 714.766 249.502C715.139 249.502 715.508 249.426 715.853 249.279C716.198 249.131 716.511 248.914 716.775 248.641C717.038 248.368 717.248 248.044 717.39 247.688C717.533 247.331 717.607 246.949 717.607 246.562C717.607 246.176 717.533 245.794 717.39 245.437C717.248 245.081 717.038 244.757 716.775 244.484C716.511 244.211 716.198 243.994 715.853 243.846C715.508 243.699 715.139 243.623 714.766 243.623C714.393 243.623 714.023 243.699 713.679 243.846C713.334 243.994 713.021 244.211 712.757 244.484C712.493 244.757 712.284 245.081 712.141 245.437C711.998 245.794 711.925 246.176 711.925 246.562ZM984.216 270.045C984.216 270.824 984.516 271.572 985.049 272.124C985.581 272.675 986.304 272.985 987.057 272.985C987.811 272.985 988.533 272.675 989.066 272.124C989.599 271.572 989.898 270.824 989.898 270.045C989.898 269.265 989.599 268.517 989.066 267.966C988.533 267.414 987.811 267.105 987.057 267.105C986.304 267.105 985.581 267.414 985.049 267.966C984.516 268.517 984.216 269.265 984.216 270.045ZM870.762 246.562C870.762 247.342 871.061 248.09 871.594 248.641C872.126 249.193 872.849 249.502 873.603 249.502C874.356 249.502 875.079 249.193 875.611 248.641C876.144 248.09 876.443 247.342 876.443 246.562C876.443 245.783 876.144 245.035 875.611 244.484C875.079 243.932 874.356 243.623 873.603 243.623C872.849 243.623 872.126 243.932 871.594 244.484C871.061 245.035 870.762 245.783 870.762 246.562ZM893.453 246.562C893.453 247.342 893.752 248.09 894.285 248.641C894.817 249.193 895.54 249.502 896.293 249.502C897.047 249.502 897.77 249.193 898.302 248.641C898.835 248.09 899.134 247.342 899.134 246.562C899.134 245.783 898.835 245.035 898.302 244.484C897.77 243.932 897.047 243.623 896.293 243.623C895.54 243.623 894.817 243.932 894.285 244.484C893.752 245.035 893.453 245.783 893.453 246.562ZM984.216 246.562C984.216 247.342 984.516 248.09 985.049 248.641C985.581 249.193 986.304 249.502 987.057 249.502C987.811 249.502 988.533 249.193 989.066 248.641C989.599 248.09 989.898 247.342 989.898 246.562C989.898 245.783 989.599 245.035 989.066 244.484C988.533 243.932 987.811 243.623 987.057 243.623C986.304 243.623 985.581 243.932 985.049 244.484C984.516 245.035 984.216 245.783 984.216 246.562Z" fill="black"/>
<path d="M1097.67 223.08C1097.67 223.86 1097.97 224.608 1098.5 225.159C1099.04 225.711 1099.76 226.02 1100.51 226.02C1101.27 226.02 1101.99 225.711 1102.52 225.159C1103.05 224.608 1103.35 223.86 1103.35 223.08C1103.35 222.301 1103.05 221.553 1102.52 221.001C1101.99 220.45 1101.27 220.14 1100.51 220.14C1099.76 220.14 1099.04 220.45 1098.5 221.001C1097.97 221.553 1097.67 222.301 1097.67 223.08ZM1029.6 223.08C1029.6 223.86 1029.9 224.608 1030.43 225.159C1030.96 225.711 1031.69 226.02 1032.44 226.02C1033.19 226.02 1033.92 225.711 1034.45 225.159C1034.98 224.608 1035.28 223.86 1035.28 223.08C1035.28 222.301 1034.98 221.553 1034.45 221.001C1033.92 220.45 1033.19 220.14 1032.44 220.14C1031.69 220.14 1030.96 220.45 1030.43 221.001C1029.9 221.553 1029.6 222.301 1029.6 223.08ZM1097.67 270.045C1097.67 270.824 1097.97 271.572 1098.5 272.124C1099.04 272.675 1099.76 272.985 1100.51 272.985C1101.27 272.985 1101.99 272.675 1102.52 272.124C1103.05 271.572 1103.35 270.824 1103.35 270.045C1103.35 269.265 1103.05 268.517 1102.52 267.966C1101.99 267.414 1101.27 267.105 1100.51 267.105C1099.76 267.105 1099.04 267.414 1098.5 267.966C1097.97 268.517 1097.67 269.265 1097.67 270.045Z" fill="black"/>
<path d="M916.144 317.009C916.144 317.789 916.443 318.536 916.976 319.088C917.508 319.639 918.231 319.949 918.984 319.949C919.738 319.949 920.461 319.639 920.993 319.088C921.526 318.536 921.825 317.789 921.825 317.009C921.825 316.229 921.526 315.481 920.993 314.93C920.461 314.379 919.738 314.069 918.984 314.069C918.231 314.069 917.508 314.379 916.976 314.93C916.443 315.481 916.144 316.229 916.144 317.009ZM1143.05 293.527C1143.05 294.307 1143.35 295.054 1143.89 295.606C1144.42 296.157 1145.14 296.467 1145.89 296.467C1146.65 296.467 1147.37 296.157 1147.9 295.606C1148.44 295.054 1148.74 294.307 1148.74 293.527C1148.74 292.747 1148.44 291.999 1147.9 291.448C1147.37 290.897 1146.65 290.587 1145.89 290.587C1145.14 290.587 1144.42 290.897 1143.89 291.448C1143.35 291.999 1143.05 292.747 1143.05 293.527ZM938.835 340.491C938.835 341.271 939.134 342.019 939.667 342.57C940.199 343.121 940.922 343.431 941.675 343.431C942.429 343.431 943.152 343.121 943.684 342.57C944.217 342.019 944.516 341.271 944.516 340.491C944.516 339.711 944.217 338.964 943.684 338.412C943.152 337.861 942.429 337.551 941.675 337.551C940.922 337.551 940.199 337.861 939.667 338.412C939.134 338.964 938.835 339.711 938.835 340.491ZM1165.74 293.527C1165.74 294.307 1166.04 295.054 1166.58 295.606C1167.11 296.157 1167.83 296.467 1168.59 296.467C1169.34 296.467 1170.06 296.157 1170.59 295.606C1171.13 295.054 1171.43 294.307 1171.43 293.527C1171.43 292.747 1171.13 291.999 1170.59 291.448C1170.06 290.897 1169.34 290.587 1168.59 290.587C1167.83 290.587 1167.11 290.897 1166.58 291.448C1166.04 291.999 1165.74 292.747 1165.74 293.527Z" fill="black"/>
<path d="M870.762 199.598C870.762 200.378 871.061 201.126 871.594 201.677C872.126 202.228 872.849 202.538 873.602 202.538C874.356 202.538 875.079 202.228 875.611 201.677C876.144 201.126 876.443 200.378 876.443 199.598C876.443 198.818 876.144 198.071 875.611 197.519C875.079 196.968 874.356 196.658 873.602 196.658C872.849 196.658 872.126 196.968 871.594 197.519C871.061 198.071 870.762 198.818 870.762 199.598ZM870.762 176.116C870.762 176.896 871.061 177.644 871.594 178.195C872.126 178.746 872.849 179.056 873.602 179.056C874.356 179.056 875.079 178.746 875.611 178.195C876.144 177.644 876.443 176.896 876.443 176.116C876.443 175.336 876.144 174.589 875.611 174.037C875.079 173.486 874.356 173.176 873.602 173.176C872.849 173.176 872.126 173.486 871.594 174.037C871.061 174.589 870.762 175.336 870.762 176.116ZM825.38 223.08C825.38 223.86 825.679 224.608 826.212 225.159C826.744 225.711 827.467 226.02 828.221 226.02C828.974 226.02 829.697 225.711 830.229 225.159C830.762 224.608 831.061 223.86 831.061 223.08C831.061 222.301 830.762 221.553 830.229 221.001C829.697 220.45 828.974 220.14 828.221 220.14C827.467 220.14 826.744 220.45 826.212 221.001C825.679 221.553 825.38 222.301 825.38 223.08ZM916.144 223.08C916.144 223.86 916.443 224.608 916.976 225.159C917.508 225.711 918.231 226.02 918.984 226.02C919.738 226.02 920.461 225.711 920.993 225.159C921.526 224.608 921.825 223.86 921.825 223.08C921.825 222.301 921.526 221.553 920.993 221.001C920.461 220.45 919.738 220.14 918.984 220.14C918.231 220.14 917.508 220.45 916.976 221.001C916.443 221.553 916.144 222.301 916.144 223.08ZM1074.98 199.598C1074.98 200.378 1075.28 201.126 1075.81 201.677C1076.35 202.228 1077.07 202.538 1077.82 202.538C1078.57 202.538 1079.3 202.228 1079.83 201.677C1080.36 201.126 1080.66 200.378 1080.66 199.598C1080.66 198.818 1080.36 198.071 1079.83 197.519C1079.3 196.968 1078.57 196.658 1077.82 196.658C1077.07 196.658 1076.35 196.968 1075.81 197.519C1075.28 198.071 1074.98 198.818 1074.98 199.598ZM961.525 223.08C961.525 223.86 961.825 224.608 962.358 225.159C962.89 225.711 963.613 226.02 964.366 226.02C965.12 226.02 965.842 225.711 966.375 225.159C966.908 224.608 967.207 223.86 967.207 223.08C967.207 222.301 966.908 221.553 966.375 221.001C965.842 220.45 965.12 220.14 964.366 220.14C963.613 220.14 962.89 220.45 962.358 221.001C961.825 221.553 961.525 222.301 961.525 223.08Z" fill="black"/>
<path d="M802.689 363.973C802.689 364.753 802.988 365.501 803.521 366.052C804.053 366.603 804.776 366.913 805.529 366.913C806.283 366.913 807.006 366.603 807.538 366.052C808.071 365.501 808.37 364.753 808.37 363.973C808.37 363.194 808.071 362.446 807.538 361.894C807.006 361.343 806.283 361.033 805.529 361.033C804.776 361.033 804.053 361.343 803.521 361.894C802.988 362.446 802.689 363.194 802.689 363.973ZM870.761 340.491C870.761 341.271 871.061 342.019 871.594 342.57C872.126 343.121 872.849 343.431 873.602 343.431C874.356 343.431 875.078 343.121 875.611 342.57C876.144 342.019 876.443 341.271 876.443 340.491C876.443 339.711 876.144 338.964 875.611 338.412C875.078 337.861 874.356 337.551 873.602 337.551C872.849 337.551 872.126 337.861 871.594 338.412C871.061 338.964 870.761 339.711 870.761 340.491ZM757.307 363.973C757.307 364.753 757.606 365.501 758.139 366.052C758.671 366.603 759.394 366.913 760.148 366.913C760.901 366.913 761.624 366.603 762.156 366.052C762.689 365.501 762.988 364.753 762.988 363.973C762.988 363.194 762.689 362.446 762.156 361.894C761.624 361.343 760.901 361.033 760.148 361.033C759.394 361.033 758.671 361.343 758.139 361.894C757.606 362.446 757.307 363.194 757.307 363.973ZM825.38 387.455C825.38 388.235 825.679 388.983 826.212 389.534C826.744 390.086 827.467 390.395 828.22 390.395C828.974 390.395 829.697 390.086 830.229 389.534C830.762 388.983 831.061 388.235 831.061 387.455C831.061 386.676 830.762 385.928 830.229 385.376C829.697 384.825 828.974 384.515 828.22 384.515C827.467 384.515 826.744 384.825 826.212 385.376C825.679 385.928 825.38 386.676 825.38 387.455ZM916.143 410.938C916.143 411.717 916.443 412.465 916.976 413.016C917.508 413.568 918.231 413.877 918.984 413.877C919.738 413.877 920.46 413.568 920.993 413.016C921.526 412.465 921.825 411.717 921.825 410.938C921.825 410.158 921.526 409.41 920.993 408.859C920.46 408.307 919.738 407.998 918.984 407.998C918.231 407.998 917.508 408.307 916.976 408.859C916.443 409.41 916.143 410.158 916.143 410.938ZM961.525 363.973C961.525 364.753 961.825 365.501 962.357 366.052C962.89 366.603 963.613 366.913 964.366 366.913C965.12 366.913 965.842 366.603 966.375 366.052C966.908 365.501 967.207 364.753 967.207 363.973C967.207 363.194 966.908 362.446 966.375 361.894C965.842 361.343 965.12 361.033 964.366 361.033C963.613 361.033 962.89 361.343 962.357 361.894C961.825 362.446 961.525 363.194 961.525 363.973ZM848.071 410.938C848.071 411.717 848.37 412.465 848.903 413.016C849.435 413.568 850.158 413.877 850.911 413.877C851.665 413.877 852.388 413.568 852.92 413.016C853.453 412.465 853.752 411.717 853.752 410.938C853.752 410.158 853.453 409.41 852.92 408.859C852.388 408.307 851.665 407.998 850.911 407.998C850.158 407.998 849.435 408.307 848.903 408.859C848.37 409.41 848.071 410.158 848.071 410.938Z" fill="black"/>
<path d="M916.144 82.1875C916.144 82.9672 916.443 83.715 916.976 84.2664C917.508 84.8177 918.231 85.1275 918.984 85.1275C919.738 85.1275 920.461 84.8177 920.993 84.2664C921.526 83.715 921.825 82.9672 921.825 82.1875C921.825 81.4078 921.526 80.66 920.993 80.1086C920.461 79.5573 919.738 79.2475 918.984 79.2475C918.231 79.2475 917.508 79.5573 916.976 80.1086C916.443 80.66 916.144 81.4078 916.144 82.1875ZM825.38 58.7054C825.38 59.4851 825.679 60.2329 826.212 60.7842C826.744 61.3356 827.467 61.6453 828.221 61.6453C828.974 61.6453 829.697 61.3356 830.229 60.7842C830.762 60.2329 831.061 59.4851 831.061 58.7054C831.061 57.9256 830.762 57.1778 830.229 56.6265C829.697 56.0751 828.974 55.7654 828.221 55.7654C827.467 55.7654 826.744 56.0751 826.212 56.6265C825.679 57.1778 825.38 57.9256 825.38 58.7054ZM1006.91 129.152C1006.91 129.932 1007.21 130.679 1007.74 131.231C1008.27 131.782 1008.99 132.092 1009.75 132.092C1010.5 132.092 1011.22 131.782 1011.76 131.231C1012.29 130.679 1012.59 129.932 1012.59 129.152C1012.59 128.372 1012.29 127.624 1011.76 127.073C1011.22 126.522 1010.5 126.212 1009.75 126.212C1008.99 126.212 1008.27 126.522 1007.74 127.073C1007.21 127.624 1006.91 128.372 1006.91 129.152ZM1143.05 199.598C1143.05 200.378 1143.35 201.126 1143.89 201.677C1144.42 202.228 1145.14 202.538 1145.89 202.538C1146.65 202.538 1147.37 202.228 1147.9 201.677C1148.44 201.126 1148.74 200.378 1148.74 199.598C1148.74 198.818 1148.44 198.071 1147.9 197.519C1147.37 196.968 1146.65 196.658 1145.89 196.658C1145.14 196.658 1144.42 196.968 1143.89 197.519C1143.35 198.071 1143.05 198.818 1143.05 199.598ZM1143.05 152.634C1143.05 153.414 1143.35 154.161 1143.89 154.713C1144.42 155.264 1145.14 155.574 1145.89 155.574C1146.65 155.574 1147.37 155.264 1147.9 154.713C1148.44 154.161 1148.74 153.414 1148.74 152.634C1148.74 151.854 1148.44 151.106 1147.9 150.555C1147.37 150.004 1146.65 149.694 1145.89 149.694C1145.14 149.694 1144.42 150.004 1143.89 150.555C1143.35 151.106 1143.05 151.854 1143.05 152.634Z" fill="black"/>
<path d="M779.998 434.42C779.998 435.199 780.297 435.947 780.83 436.499C781.363 437.05 782.085 437.36 782.839 437.36C783.592 437.36 784.315 437.05 784.847 436.499C785.38 435.947 785.68 435.199 785.68 434.42C785.68 433.64 785.38 432.892 784.847 432.341C784.315 431.789 783.592 431.48 782.839 431.48C782.085 431.48 781.363 431.789 780.83 432.341C780.297 432.892 779.998 433.64 779.998 434.42ZM1188.44 363.973C1188.44 364.753 1188.73 365.501 1189.27 366.052C1189.8 366.603 1190.52 366.913 1191.28 366.913C1192.03 366.913 1192.75 366.603 1193.29 366.052C1193.82 365.501 1194.12 364.753 1194.12 363.973C1194.12 363.193 1193.82 362.446 1193.29 361.894C1192.75 361.343 1192.03 361.033 1191.28 361.033C1190.52 361.033 1189.8 361.343 1189.27 361.894C1188.73 362.446 1188.44 363.193 1188.44 363.973ZM1233.82 363.973C1233.82 364.753 1234.12 365.501 1234.65 366.052C1235.18 366.603 1235.9 366.913 1236.66 366.913C1237.41 366.913 1238.13 366.603 1238.67 366.052C1239.2 365.501 1239.5 364.753 1239.5 363.973C1239.5 363.193 1239.2 362.446 1238.67 361.894C1238.13 361.343 1237.41 361.033 1236.66 361.033C1235.9 361.033 1235.18 361.343 1234.65 361.894C1234.12 362.446 1233.82 363.193 1233.82 363.973ZM1052.29 363.973C1052.29 364.753 1052.59 365.501 1053.12 366.052C1053.65 366.603 1054.38 366.913 1055.13 366.913C1055.88 366.913 1056.61 366.603 1057.14 366.052C1057.67 365.501 1057.97 364.753 1057.97 363.973C1057.97 363.193 1057.67 362.446 1057.14 361.894C1056.61 361.343 1055.88 361.033 1055.13 361.033C1054.38 361.033 1053.65 361.343 1053.12 361.894C1052.59 362.446 1052.29 363.193 1052.29 363.973ZM711.925 457.902C711.925 458.288 711.998 458.67 712.141 459.027C712.284 459.384 712.493 459.708 712.757 459.981C713.021 460.254 713.334 460.47 713.679 460.618C714.023 460.766 714.393 460.842 714.766 460.842C715.139 460.842 715.508 460.766 715.853 460.618C716.198 460.47 716.511 460.254 716.775 459.981C717.038 459.708 717.248 459.384 717.39 459.027C717.533 458.67 717.607 458.288 717.607 457.902C717.607 457.516 717.533 457.133 717.39 456.777C717.248 456.42 717.038 456.096 716.775 455.823C716.511 455.55 716.198 455.333 715.853 455.186C715.508 455.038 715.139 454.962 714.766 454.962C714.393 454.962 714.023 455.038 713.679 455.186C713.334 455.333 713.021 455.55 712.757 455.823C712.493 456.096 712.284 456.42 712.141 456.777C711.998 457.133 711.925 457.516 711.925 457.902ZM802.689 481.384C802.689 482.164 802.988 482.911 803.521 483.463C804.054 484.014 804.776 484.324 805.53 484.324C806.283 484.324 807.006 484.014 807.538 483.463C808.071 482.911 808.371 482.164 808.371 481.384C808.371 480.604 808.071 479.856 807.538 479.305C807.006 478.754 806.283 478.444 805.53 478.444C804.776 478.444 804.054 478.754 803.521 479.305C802.988 479.856 802.689 480.604 802.689 481.384ZM779.998 410.937C779.998 411.717 780.297 412.465 780.83 413.016C781.363 413.568 782.085 413.877 782.839 413.877C783.592 413.877 784.315 413.568 784.847 413.016C785.38 412.465 785.68 411.717 785.68 410.937C785.68 410.158 785.38 409.41 784.847 408.859C784.315 408.307 783.592 407.998 782.839 407.998C782.085 407.998 781.363 408.307 780.83 408.859C780.297 409.41 779.998 410.158 779.998 410.937Z" fill="black"/>
<path d="M1211.13 176.116C1211.13 176.896 1211.43 177.644 1211.96 178.195C1212.49 178.746 1213.21 179.056 1213.97 179.056C1214.72 179.056 1215.44 178.746 1215.98 178.195C1216.51 177.644 1216.81 176.896 1216.81 176.116C1216.81 175.336 1216.51 174.589 1215.98 174.037C1215.44 173.486 1214.72 173.176 1213.97 173.176C1213.21 173.176 1212.49 173.486 1211.96 174.037C1211.43 174.589 1211.13 175.336 1211.13 176.116Z" fill="black"/>
<path d="M893.453 481.384C893.453 482.164 893.752 482.911 894.285 483.463C894.817 484.014 895.54 484.324 896.294 484.324C897.047 484.324 897.77 484.014 898.302 483.463C898.835 482.911 899.134 482.164 899.134 481.384C899.134 480.604 898.835 479.856 898.302 479.305C897.77 478.754 897.047 478.444 896.294 478.444C895.54 478.444 894.817 478.754 894.285 479.305C893.752 479.856 893.453 480.604 893.453 481.384ZM916.144 481.384C916.144 482.164 916.443 482.911 916.976 483.463C917.508 484.014 918.231 484.324 918.985 484.324C919.738 484.324 920.461 484.014 920.993 483.463C921.526 482.911 921.825 482.164 921.825 481.384C921.825 480.604 921.526 479.856 920.993 479.305C920.461 478.754 919.738 478.444 918.985 478.444C918.231 478.444 917.508 478.754 916.976 479.305C916.443 479.856 916.144 480.604 916.144 481.384ZM1029.6 434.42C1029.6 435.199 1029.9 435.947 1030.43 436.499C1030.96 437.05 1031.69 437.36 1032.44 437.36C1033.19 437.36 1033.92 437.05 1034.45 436.499C1034.98 435.947 1035.28 435.199 1035.28 434.42C1035.28 433.64 1034.98 432.892 1034.45 432.341C1033.92 431.789 1033.19 431.48 1032.44 431.48C1031.69 431.48 1030.96 431.789 1030.43 432.341C1029.9 432.892 1029.6 433.64 1029.6 434.42ZM938.835 481.384C938.835 482.164 939.134 482.911 939.667 483.463C940.199 484.014 940.922 484.324 941.675 484.324C942.429 484.324 943.152 484.014 943.684 483.463C944.217 482.911 944.516 482.164 944.516 481.384C944.516 480.604 944.217 479.856 943.684 479.305C943.152 478.754 942.429 478.444 941.675 478.444C940.922 478.444 940.199 478.754 939.667 479.305C939.134 479.856 938.835 480.604 938.835 481.384ZM1120.36 434.42C1120.36 435.199 1120.66 435.947 1121.19 436.499C1121.73 437.05 1122.45 437.36 1123.2 437.36C1123.96 437.36 1124.68 437.05 1125.21 436.499C1125.74 435.947 1126.04 435.199 1126.04 434.42C1126.04 433.64 1125.74 432.892 1125.21 432.341C1124.68 431.789 1123.96 431.48 1123.2 431.48C1122.45 431.48 1121.73 431.789 1121.19 432.341C1120.66 432.892 1120.36 433.64 1120.36 434.42ZM1165.74 434.42C1165.74 435.199 1166.04 435.947 1166.58 436.499C1167.11 437.05 1167.83 437.36 1168.59 437.36C1169.34 437.36 1170.06 437.05 1170.59 436.499C1171.13 435.947 1171.43 435.199 1171.43 434.42C1171.43 433.64 1171.13 432.892 1170.59 432.341C1170.06 431.789 1169.34 431.48 1168.59 431.48C1167.83 431.48 1167.11 431.789 1166.58 432.341C1166.04 432.892 1165.74 433.64 1165.74 434.42Z" fill="black"/>
<path d="M1097.67 105.67C1097.67 106.449 1097.97 107.197 1098.5 107.749C1099.04 108.3 1099.76 108.61 1100.51 108.61C1101.27 108.61 1101.99 108.3 1102.52 107.749C1103.05 107.197 1103.35 106.449 1103.35 105.67C1103.35 104.89 1103.05 104.142 1102.52 103.591C1101.99 103.039 1101.27 102.73 1100.51 102.73C1099.76 102.73 1099.04 103.039 1098.5 103.591C1097.97 104.142 1097.67 104.89 1097.67 105.67ZM1279.2 129.152C1279.2 129.932 1279.5 130.679 1280.03 131.231C1280.56 131.782 1281.29 132.092 1282.04 132.092C1282.79 132.092 1283.52 131.782 1284.05 131.231C1284.58 130.679 1284.88 129.932 1284.88 129.152C1284.88 128.372 1284.58 127.624 1284.05 127.073C1283.52 126.522 1282.79 126.212 1282.04 126.212C1281.29 126.212 1280.56 126.522 1280.03 127.073C1279.5 127.624 1279.2 128.372 1279.2 129.152ZM1188.44 105.67C1188.44 106.449 1188.73 107.197 1189.27 107.749C1189.8 108.3 1190.52 108.61 1191.28 108.61C1192.03 108.61 1192.75 108.3 1193.29 107.749C1193.82 107.197 1194.12 106.449 1194.12 105.67C1194.12 104.89 1193.82 104.142 1193.29 103.591C1192.75 103.039 1192.03 102.73 1191.28 102.73C1190.52 102.73 1189.8 103.039 1189.27 103.591C1188.73 104.142 1188.44 104.89 1188.44 105.67ZM1165.74 152.634C1165.74 153.414 1166.04 154.161 1166.58 154.713C1167.11 155.264 1167.83 155.574 1168.59 155.574C1169.34 155.574 1170.06 155.264 1170.59 154.713C1171.13 154.161 1171.43 153.414 1171.43 152.634C1171.43 151.854 1171.13 151.106 1170.59 150.555C1170.06 150.004 1169.34 149.694 1168.59 149.694C1167.83 149.694 1167.11 150.004 1166.58 150.555C1166.04 151.106 1165.74 151.854 1165.74 152.634Z" fill="black"/>
</mask>
<g mask="url(#mask1_21_71)">
<path d="M782.839 270.045L760.148 293.527M782.839 270.045H805.53H828.22H850.911L873.602 293.527H896.293H918.984M782.839 270.045H760.148M760.148 270.045L737.457 246.562H714.766M760.148 270.045H737.457M1055.13 293.527L1032.44 270.045H1009.75H987.057M1055.13 293.527H1077.82M1055.13 293.527H1032.44H1009.75H987.057H964.366M918.984 293.527L896.293 270.045L873.602 246.562M918.984 293.527H941.675H964.366M964.366 293.527L941.675 270.045H918.984L896.293 246.562M1077.82 293.527L1055.13 270.045L1032.44 246.562H1009.75H987.057M1077.82 293.527H1100.51H1123.2L1145.89 270.045H1168.59H1191.28H1213.97H1236.66H1259.35H1282.04H1304.73H1327.42" stroke="url(#paint0_linear_21_71)" stroke-width="4.17"/>
<path d="M731.784 270.045C731.784 271.602 732.381 273.095 733.445 274.196C734.509 275.297 735.952 275.915 737.456 275.915C738.961 275.915 740.404 275.297 741.468 274.196C742.532 273.095 743.129 271.602 743.129 270.045C743.129 268.488 742.532 266.995 741.468 265.894C740.404 264.793 738.961 264.174 737.456 264.174C735.952 264.174 734.509 264.793 733.445 265.894C732.381 266.995 731.784 268.488 731.784 270.045ZM754.475 293.527C754.475 295.084 755.072 296.577 756.136 297.678C757.2 298.779 758.643 299.397 760.147 299.397C761.652 299.397 763.095 298.779 764.159 297.678C765.223 296.577 765.82 295.084 765.82 293.527C765.82 291.97 765.223 290.477 764.159 289.376C763.095 288.275 761.652 287.656 760.147 287.656C758.643 287.656 757.2 288.275 756.136 289.376C755.072 290.477 754.475 291.97 754.475 293.527ZM709.093 246.563C709.093 248.119 709.69 249.613 710.754 250.714C711.818 251.815 713.261 252.433 714.766 252.433C716.27 252.433 717.713 251.815 718.777 250.714C719.841 249.613 720.438 248.119 720.438 246.563C720.438 245.006 719.841 243.512 718.777 242.411C717.713 241.31 716.27 240.692 714.766 240.692C713.261 240.692 711.818 241.31 710.754 242.411C709.69 243.512 709.093 245.006 709.093 246.563ZM981.384 270.045C981.384 271.602 981.982 273.095 983.046 274.196C984.11 275.297 985.553 275.915 987.057 275.915C988.562 275.915 990.005 275.297 991.068 274.196C992.132 273.095 992.73 271.602 992.73 270.045C992.73 268.488 992.132 266.995 991.068 265.894C990.005 264.793 988.562 264.174 987.057 264.174C985.553 264.174 984.11 264.793 983.046 265.894C981.982 266.995 981.384 268.488 981.384 270.045ZM867.93 246.563C867.93 248.119 868.527 249.613 869.591 250.714C870.655 251.815 872.098 252.433 873.602 252.433C875.107 252.433 876.55 251.815 877.614 250.714C878.677 249.613 879.275 248.119 879.275 246.563C879.275 245.006 878.677 243.512 877.614 242.411C876.55 241.31 875.107 240.692 873.602 240.692C872.098 240.692 870.655 241.31 869.591 242.411C868.527 243.512 867.93 245.006 867.93 246.563ZM890.621 246.563C890.621 248.119 891.218 249.613 892.282 250.714C893.346 251.815 894.789 252.433 896.293 252.433C897.798 252.433 899.241 251.815 900.305 250.714C901.368 249.613 901.966 248.119 901.966 246.563C901.966 245.006 901.368 243.512 900.305 242.411C899.241 241.31 897.798 240.692 896.293 240.692C894.789 240.692 893.346 241.31 892.282 242.411C891.218 243.512 890.621 245.006 890.621 246.563ZM981.384 246.563C981.384 248.119 981.982 249.613 983.046 250.714C984.11 251.815 985.553 252.433 987.057 252.433C988.562 252.433 990.005 251.815 991.068 250.714C992.132 249.613 992.73 248.119 992.73 246.563C992.73 245.006 992.132 243.512 991.068 242.411C990.005 241.31 988.562 240.692 987.057 240.692C985.553 240.692 984.11 241.31 983.046 242.411C981.982 243.512 981.384 245.006 981.384 246.563Z" fill="url(#paint1_linear_21_71)"/>
<path d="M1123.2 223.08L1100.51 246.563H1077.82H1055.13L1032.44 223.08M1123.2 223.08L1145.89 246.563M1123.2 223.08H1100.51M1145.89 246.563H1123.2L1100.51 270.045M1145.89 246.563H1168.59H1191.28H1213.97H1236.66H1259.35H1282.04H1304.73H1327.42" stroke="url(#paint2_linear_21_71)" stroke-width="4.17"/>
<path d="M1094.84 223.08C1094.84 224.637 1095.44 226.131 1096.5 227.231C1097.56 228.332 1099.01 228.951 1100.51 228.951C1102.02 228.951 1103.46 228.332 1104.52 227.231C1105.59 226.131 1106.18 224.637 1106.18 223.08C1106.18 221.523 1105.59 220.03 1104.52 218.929C1103.46 217.828 1102.02 217.21 1100.51 217.21C1099.01 217.21 1097.56 217.828 1096.5 218.929C1095.44 220.03 1094.84 221.523 1094.84 223.08ZM1026.77 223.08C1026.77 224.637 1027.36 226.131 1028.43 227.231C1029.49 228.332 1030.93 228.951 1032.44 228.951C1033.94 228.951 1035.39 228.332 1036.45 227.231C1037.51 226.131 1038.11 224.637 1038.11 223.08C1038.11 221.523 1037.51 220.03 1036.45 218.929C1035.39 217.828 1033.94 217.21 1032.44 217.21C1030.93 217.21 1029.49 217.828 1028.43 218.929C1027.36 220.03 1026.77 221.523 1026.77 223.08ZM1094.84 270.045C1094.84 271.602 1095.44 273.095 1096.5 274.196C1097.56 275.297 1099.01 275.915 1100.51 275.915C1102.02 275.915 1103.46 275.297 1104.52 274.196C1105.59 273.095 1106.18 271.602 1106.18 270.045C1106.18 268.488 1105.59 266.994 1104.52 265.894C1103.46 264.793 1102.02 264.174 1100.51 264.174C1099.01 264.174 1097.56 264.793 1096.5 265.894C1095.44 266.994 1094.84 268.488 1094.84 270.045Z" fill="url(#paint3_linear_21_71)"/>
<path d="M1168.59 317.009L1145.89 293.527M1168.59 317.009H1191.28M1168.59 317.009H1145.89H1123.2H1100.51H1077.82H1055.13H1032.44H1009.75H987.057M987.057 317.009L964.366 340.491H941.675M987.057 317.009H964.366H941.675H918.984M1191.28 317.009L1168.59 293.527M1191.28 317.009L1213.97 293.527H1236.66H1259.35H1282.04H1304.73H1327.42" stroke="url(#paint4_linear_21_71)" stroke-width="4.17"/>
<path d="M913.312 317.009C913.312 318.566 913.909 320.059 914.973 321.16C916.037 322.261 917.48 322.879 918.984 322.879C920.489 322.879 921.932 322.261 922.996 321.16C924.059 320.059 924.657 318.566 924.657 317.009C924.657 315.452 924.059 313.959 922.996 312.858C921.932 311.757 920.489 311.138 918.984 311.138C917.48 311.138 916.037 311.757 914.973 312.858C913.909 313.959 913.312 315.452 913.312 317.009ZM1140.22 293.527C1140.22 295.084 1140.82 296.577 1141.88 297.678C1142.95 298.779 1144.39 299.397 1145.89 299.397C1147.4 299.397 1148.84 298.779 1149.91 297.678C1150.97 296.577 1151.57 295.084 1151.57 293.527C1151.57 291.97 1150.97 290.477 1149.91 289.376C1148.84 288.275 1147.4 287.656 1145.89 287.656C1144.39 287.656 1142.95 288.275 1141.88 289.376C1140.82 290.477 1140.22 291.97 1140.22 293.527ZM936.002 340.491C936.002 342.048 936.6 343.541 937.664 344.642C938.728 345.743 940.171 346.362 941.675 346.362C943.18 346.362 944.623 345.743 945.686 344.642C946.75 343.541 947.348 342.048 947.348 340.491C947.348 338.934 946.75 337.441 945.686 336.34C944.623 335.239 943.18 334.621 941.675 334.621C940.171 334.621 938.728 335.239 937.664 336.34C936.6 337.441 936.002 338.934 936.002 340.491ZM1162.91 293.527C1162.91 295.084 1163.51 296.577 1164.57 297.678C1165.64 298.779 1167.08 299.397 1168.58 299.397C1170.09 299.397 1171.53 298.779 1172.6 297.678C1173.66 296.577 1174.26 295.084 1174.26 293.527C1174.26 291.97 1173.66 290.477 1172.6 289.376C1171.53 288.275 1170.09 287.656 1168.58 287.656C1167.08 287.656 1165.64 288.275 1164.57 289.376C1163.51 290.477 1162.91 291.97 1162.91 293.527Z" fill="url(#paint5_linear_21_71)"/>
<path d="M964.366 176.116H941.675H918.984H896.293H873.602M964.366 176.116H987.057M964.366 176.116L941.675 199.598H918.984M918.984 199.598L896.293 223.08H873.602H850.911H828.22M918.984 199.598H896.293H873.602M987.057 176.116L964.366 199.598L941.675 223.08H918.984M987.057 176.116H1009.75H1032.44M1123.2 199.598H1100.51H1077.82M1123.2 199.598L1145.89 223.08H1168.59H1191.28H1213.97H1236.66H1259.35H1282.04H1304.73H1327.42M1123.2 199.598L1100.51 176.116H1077.82H1055.13H1032.44M1032.44 176.116L1009.75 199.598L987.057 223.08H964.366" stroke="url(#paint6_linear_21_71)" stroke-width="4.17"/>
<path d="M867.93 199.598C867.93 201.155 868.527 202.648 869.591 203.749C870.655 204.85 872.098 205.469 873.602 205.469C875.107 205.469 876.55 204.85 877.614 203.749C878.677 202.648 879.275 201.155 879.275 199.598C879.275 198.041 878.677 196.548 877.614 195.447C876.55 194.346 875.107 193.728 873.602 193.728C872.098 193.728 870.655 194.346 869.591 195.447C868.527 196.548 867.93 198.041 867.93 199.598ZM867.93 176.116C867.93 177.673 868.527 179.166 869.591 180.267C870.655 181.368 872.098 181.987 873.602 181.987C875.107 181.987 876.55 181.368 877.614 180.267C878.677 179.166 879.275 177.673 879.275 176.116C879.275 174.559 878.677 173.066 877.614 171.965C876.55 170.864 875.107 170.246 873.602 170.246C872.098 170.246 870.655 170.864 869.591 171.965C868.527 173.066 867.93 174.559 867.93 176.116ZM822.548 223.08C822.548 224.637 823.145 226.131 824.209 227.231C825.273 228.332 826.716 228.951 828.22 228.951C829.725 228.951 831.168 228.332 832.232 227.231C833.295 226.131 833.893 224.637 833.893 223.08C833.893 221.523 833.295 220.03 832.232 218.929C831.168 217.828 829.725 217.21 828.22 217.21C826.716 217.21 825.273 217.828 824.209 218.929C823.145 220.03 822.548 221.523 822.548 223.08ZM913.311 223.08C913.311 224.637 913.909 226.131 914.973 227.231C916.037 228.332 917.48 228.951 918.984 228.951C920.489 228.951 921.932 228.332 922.995 227.231C924.059 226.131 924.657 224.637 924.657 223.08C924.657 221.523 924.059 220.03 922.995 218.929C921.932 217.828 920.489 217.21 918.984 217.21C917.48 217.21 916.037 217.828 914.973 218.929C913.909 220.03 913.311 221.523 913.311 223.08ZM1072.15 199.598C1072.15 201.155 1072.75 202.648 1073.81 203.749C1074.87 204.85 1076.32 205.469 1077.82 205.469C1079.33 205.469 1080.77 204.85 1081.83 203.749C1082.9 202.648 1083.49 201.155 1083.49 199.598C1083.49 198.041 1082.9 196.548 1081.83 195.447C1080.77 194.346 1079.33 193.728 1077.82 193.728C1076.32 193.728 1074.87 194.346 1073.81 195.447C1072.75 196.548 1072.15 198.041 1072.15 199.598ZM958.693 223.08C958.693 224.637 959.291 226.131 960.355 227.231C961.419 228.332 962.862 228.951 964.366 228.951C965.871 228.951 967.314 228.332 968.377 227.231C969.441 226.131 970.039 224.637 970.039 223.08C970.039 221.523 969.441 220.03 968.377 218.929C967.314 217.828 965.871 217.21 964.366 217.21C962.862 217.21 961.419 217.828 960.355 218.929C959.291 220.03 958.693 221.523 958.693 223.08Z" fill="url(#paint7_linear_21_71)"/>
<path d="M964.366 387.455L941.675 363.973L918.984 340.491H896.293H873.602M964.366 387.455L987.057 363.973M964.366 387.455H941.675M828.22 363.973L805.529 340.491H782.838L760.147 363.973M828.22 363.973H850.911H873.602M828.22 363.973H805.529M873.602 363.973L850.911 387.455H828.22M873.602 363.973H896.293L918.984 387.455M941.675 387.455L918.984 410.938M941.675 387.455H918.984M987.057 363.973H964.366M987.057 363.973L1009.75 340.491H1032.44H1055.13H1077.82H1100.51H1123.2H1145.89H1168.58H1191.28L1213.97 317.009H1236.66H1259.35H1282.04H1304.73H1327.42M918.984 387.455H896.293H873.602L850.911 410.938" stroke="url(#paint8_linear_21_71)" stroke-width="4.17"/>
<path d="M799.857 363.973C799.857 365.53 800.454 367.023 801.518 368.124C802.582 369.225 804.025 369.844 805.529 369.844C807.034 369.844 808.477 369.225 809.541 368.124C810.604 367.023 811.202 365.53 811.202 363.973C811.202 362.416 810.604 360.923 809.541 359.822C808.477 358.721 807.034 358.103 805.529 358.103C804.025 358.103 802.582 358.721 801.518 359.822C800.454 360.923 799.857 362.416 799.857 363.973ZM867.929 340.491C867.929 342.048 868.527 343.541 869.591 344.642C870.655 345.743 872.098 346.362 873.602 346.362C875.107 346.362 876.55 345.743 877.613 344.642C878.677 343.541 879.275 342.048 879.275 340.491C879.275 338.934 878.677 337.441 877.613 336.34C876.55 335.239 875.107 334.621 873.602 334.621C872.098 334.621 870.655 335.239 869.591 336.34C868.527 337.441 867.929 338.934 867.929 340.491ZM754.475 363.973C754.475 365.53 755.072 367.023 756.136 368.124C757.2 369.225 758.643 369.844 760.147 369.844C761.652 369.844 763.095 369.225 764.159 368.124C765.222 367.023 765.82 365.53 765.82 363.973C765.82 362.416 765.222 360.923 764.159 359.822C763.095 358.721 761.652 358.103 760.147 358.103C758.643 358.103 757.2 358.721 756.136 359.822C755.072 360.923 754.475 362.416 754.475 363.973ZM822.548 387.455C822.548 389.012 823.145 390.505 824.209 391.606C825.273 392.707 826.716 393.326 828.22 393.326C829.725 393.326 831.168 392.707 832.232 391.606C833.295 390.505 833.893 389.012 833.893 387.455C833.893 385.898 833.295 384.405 832.232 383.304C831.168 382.203 829.725 381.585 828.22 381.585C826.716 381.585 825.273 382.203 824.209 383.304C823.145 384.405 822.548 385.898 822.548 387.455ZM913.311 410.937C913.311 412.494 913.909 413.988 914.973 415.089C916.037 416.19 917.48 416.808 918.984 416.808C920.489 416.808 921.932 416.19 922.995 415.089C924.059 413.988 924.657 412.494 924.657 410.937C924.657 409.381 924.059 407.887 922.995 406.786C921.932 405.685 920.489 405.067 918.984 405.067C917.48 405.067 916.037 405.685 914.973 406.786C913.909 407.887 913.311 409.381 913.311 410.937ZM958.693 363.973C958.693 365.53 959.291 367.023 960.355 368.124C961.419 369.225 962.862 369.844 964.366 369.844C965.871 369.844 967.314 369.225 968.377 368.124C969.441 367.023 970.039 365.53 970.039 363.973C970.039 362.416 969.441 360.923 968.377 359.822C967.314 358.721 965.871 358.103 964.366 358.103C962.862 358.103 961.419 358.721 960.355 359.822C959.291 360.923 958.693 362.416 958.693 363.973ZM845.239 410.937C845.239 412.494 845.836 413.988 846.9 415.089C847.964 416.19 849.407 416.808 850.911 416.808C852.416 416.808 853.859 416.19 854.922 415.089C855.986 413.988 856.584 412.494 856.584 410.937C856.584 409.381 855.986 407.887 854.922 406.786C853.859 405.685 852.416 405.067 850.911 405.067C849.407 405.067 847.964 405.685 846.9 406.786C845.836 407.887 845.239 409.381 845.239 410.937Z" fill="url(#paint9_linear_21_71)"/>
<path d="M941.675 82.1875L918.984 58.7054H896.293H873.602H850.911H828.22M941.675 82.1875H964.366H987.057H1009.75L1032.44 105.67L1055.13 129.152M941.675 82.1875H918.984M1055.13 129.152H1032.44H1009.75M1055.13 129.152L1077.82 152.634H1100.51L1123.2 176.116H1145.89L1168.59 199.598M1168.59 199.598H1145.89M1168.59 199.598H1191.28M1191.28 199.598L1168.59 176.116L1145.89 152.634M1191.28 199.598H1213.97H1236.66H1259.35H1282.04H1304.73H1327.42" stroke="url(#paint10_linear_21_71)" stroke-width="4.17"/>
<path d="M913.312 82.1875C913.312 83.7445 913.909 85.2377 914.973 86.3386C916.037 87.4395 917.48 88.058 918.984 88.058C920.489 88.058 921.932 87.4395 922.995 86.3386C924.059 85.2377 924.657 83.7445 924.657 82.1875C924.657 80.6305 924.059 79.1373 922.995 78.0364C921.932 76.9355 920.489 76.317 918.984 76.317C917.48 76.317 916.037 76.9355 914.973 78.0364C913.909 79.1373 913.312 80.6305 913.312 82.1875ZM822.548 58.7054C822.548 60.2623 823.145 61.7555 824.209 62.8565C825.273 63.9574 826.716 64.5759 828.22 64.5759C829.725 64.5759 831.168 63.9574 832.232 62.8565C833.295 61.7555 833.893 60.2623 833.893 58.7054C833.893 57.1484 833.295 55.6552 832.232 54.5543C831.168 53.4533 829.725 52.8348 828.22 52.8348C826.716 52.8348 825.273 53.4533 824.209 54.5543C823.145 55.6552 822.548 57.1484 822.548 58.7054ZM1004.08 129.152C1004.08 130.709 1004.67 132.202 1005.74 133.303C1006.8 134.404 1008.24 135.022 1009.75 135.022C1011.25 135.022 1012.7 134.404 1013.76 133.303C1014.82 132.202 1015.42 130.709 1015.42 129.152C1015.42 127.595 1014.82 126.102 1013.76 125.001C1012.7 123.9 1011.25 123.281 1009.75 123.281C1008.24 123.281 1006.8 123.9 1005.74 125.001C1004.67 126.102 1004.08 127.595 1004.08 129.152ZM1140.22 199.598C1140.22 201.155 1140.82 202.648 1141.88 203.749C1142.95 204.85 1144.39 205.469 1145.89 205.469C1147.4 205.469 1148.84 204.85 1149.91 203.749C1150.97 202.648 1151.57 201.155 1151.57 199.598C1151.57 198.041 1150.97 196.548 1149.91 195.447C1148.84 194.346 1147.4 193.728 1145.89 193.728C1144.39 193.728 1142.95 194.346 1141.88 195.447C1140.82 196.548 1140.22 198.041 1140.22 199.598ZM1140.22 152.634C1140.22 154.191 1140.82 155.684 1141.88 156.785C1142.95 157.886 1144.39 158.504 1145.89 158.504C1147.4 158.504 1148.84 157.886 1149.91 156.785C1150.97 155.684 1151.57 154.191 1151.57 152.634C1151.57 151.077 1150.97 149.584 1149.91 148.483C1148.84 147.382 1147.4 146.763 1145.89 146.763C1144.39 146.763 1142.95 147.382 1141.88 148.483C1140.82 149.584 1140.22 151.077 1140.22 152.634Z" fill="url(#paint11_linear_21_71)"/>
<path d="M1213.97 387.455L1191.28 363.973M1213.97 387.455H1236.66H1259.35L1282.04 363.973L1304.73 340.491M1213.97 387.455H1191.28H1168.59M1304.73 340.491H1282.04H1259.35L1236.66 363.973M1304.73 340.491H1327.42M1168.59 387.455L1145.89 363.973H1123.2H1100.51H1077.82H1055.13M1168.59 387.455H1145.89H1123.2H1100.51H1077.82H1055.13L1032.44 363.973H1009.75L987.057 387.455L964.366 410.938L941.675 434.42H918.984L896.293 457.902M828.22 457.902H805.53H782.839H760.148H737.457H714.766M828.22 457.902H850.911M828.22 457.902L805.53 434.42H782.839M850.911 457.902L828.22 481.384H805.53M850.911 457.902H873.602H896.293M896.293 457.902L873.602 434.42H850.911H828.22L805.53 410.938H782.839" stroke="url(#paint12_linear_21_71)" stroke-width="4.17"/>
<path d="M777.166 434.42C777.166 435.977 777.763 437.47 778.827 438.571C779.891 439.672 781.334 440.29 782.838 440.29C784.343 440.29 785.786 439.672 786.85 438.571C787.914 437.47 788.511 435.977 788.511 434.42C788.511 432.863 787.914 431.369 786.85 430.269C785.786 429.168 784.343 428.549 782.838 428.549C781.334 428.549 779.891 429.168 778.827 430.269C777.763 431.369 777.166 432.863 777.166 434.42ZM1185.6 363.973C1185.6 365.53 1186.2 367.023 1187.26 368.124C1188.33 369.225 1189.77 369.844 1191.28 369.844C1192.78 369.844 1194.22 369.225 1195.29 368.124C1196.35 367.023 1196.95 365.53 1196.95 363.973C1196.95 362.416 1196.35 360.923 1195.29 359.822C1194.22 358.721 1192.78 358.103 1191.28 358.103C1189.77 358.103 1188.33 358.721 1187.26 359.822C1186.2 360.923 1185.6 362.416 1185.6 363.973ZM1230.99 363.973C1230.99 365.53 1231.58 367.023 1232.65 368.124C1233.71 369.225 1235.15 369.844 1236.66 369.844C1238.16 369.844 1239.61 369.225 1240.67 368.124C1241.73 367.023 1242.33 365.53 1242.33 363.973C1242.33 362.416 1241.73 360.923 1240.67 359.822C1239.61 358.721 1238.16 358.103 1236.66 358.103C1235.15 358.103 1233.71 358.721 1232.65 359.822C1231.58 360.923 1230.99 362.416 1230.99 363.973ZM1049.46 363.973C1049.46 365.53 1050.06 367.023 1051.12 368.124C1052.18 369.225 1053.63 369.844 1055.13 369.844C1056.63 369.844 1058.08 369.225 1059.14 368.124C1060.21 367.023 1060.8 365.53 1060.8 363.973C1060.8 362.416 1060.21 360.923 1059.14 359.822C1058.08 358.721 1056.63 358.103 1055.13 358.103C1053.63 358.103 1052.18 358.721 1051.12 359.822C1050.06 360.923 1049.46 362.416 1049.46 363.973ZM709.093 457.902C709.093 459.459 709.69 460.952 710.754 462.053C711.818 463.154 713.261 463.772 714.766 463.772C716.27 463.772 717.713 463.154 718.777 462.053C719.841 460.952 720.438 459.459 720.438 457.902C720.438 456.345 719.841 454.852 718.777 453.751C717.713 452.65 716.27 452.031 714.766 452.031C713.261 452.031 711.818 452.65 710.754 453.751C709.69 454.852 709.093 456.345 709.093 457.902ZM799.857 481.384C799.857 482.941 800.454 484.434 801.518 485.535C802.582 486.636 804.025 487.254 805.529 487.254C807.034 487.254 808.477 486.636 809.541 485.535C810.604 484.434 811.202 482.941 811.202 481.384C811.202 479.827 810.604 478.334 809.541 477.233C808.477 476.132 807.034 475.513 805.529 475.513C804.025 475.513 802.582 476.132 801.518 477.233C800.454 478.334 799.857 479.827 799.857 481.384ZM777.166 410.937C777.166 412.494 777.763 413.988 778.827 415.089C779.891 416.19 781.334 416.808 782.838 416.808C784.343 416.808 785.786 416.19 786.85 415.089C787.914 413.988 788.511 412.494 788.511 410.937C788.511 409.381 787.914 407.887 786.85 406.786C785.786 405.685 784.343 405.067 782.838 405.067C781.334 405.067 779.891 405.685 778.827 406.786C777.763 407.887 777.166 409.381 777.166 410.937Z" fill="url(#paint13_linear_21_71)"/>
<path d="M1327.42 176.116H1304.73H1282.04H1259.35H1236.66H1213.97" stroke="url(#paint14_linear_21_71)" stroke-width="4.17"/>
<path d="M1208.29 176.116C1208.29 177.673 1208.89 179.166 1209.96 180.267C1211.02 181.368 1212.46 181.987 1213.97 181.987C1215.47 181.987 1216.91 181.368 1217.98 180.267C1219.04 179.166 1219.64 177.673 1219.64 176.116C1219.64 174.559 1219.04 173.066 1217.98 171.965C1216.91 170.864 1215.47 170.246 1213.97 170.246C1212.46 170.246 1211.02 170.864 1209.96 171.965C1208.89 173.066 1208.29 174.559 1208.29 176.116Z" fill="url(#paint15_linear_21_71)"/>
<path d="M941.675 457.902L918.984 481.384M941.675 457.902L964.366 434.42L987.057 410.938H1009.75M941.675 457.902H918.984L896.293 481.384M1077.82 410.938L1055.13 434.42H1032.44M1077.82 410.938H1100.51H1123.2H1145.89M1077.82 410.938H1055.13H1032.44H1009.75M1009.75 410.938L987.057 434.42L964.366 457.902L941.675 481.384M1145.89 410.938L1123.2 434.42M1145.89 410.938H1168.58H1191.28H1213.97H1236.66M1236.66 410.938L1213.97 434.42H1191.28H1168.58M1236.66 410.938H1259.35L1282.04 387.455L1304.73 363.973H1327.42" stroke="url(#paint16_linear_21_71)" stroke-width="4.17"/>
<path d="M890.621 481.384C890.621 482.941 891.218 484.434 892.282 485.535C893.346 486.636 894.789 487.254 896.293 487.254C897.798 487.254 899.241 486.636 900.305 485.535C901.368 484.434 901.966 482.941 901.966 481.384C901.966 479.827 901.368 478.334 900.305 477.233C899.241 476.132 897.798 475.513 896.293 475.513C894.789 475.513 893.346 476.132 892.282 477.233C891.218 478.334 890.621 479.827 890.621 481.384ZM913.312 481.384C913.312 482.941 913.909 484.434 914.973 485.535C916.037 486.636 917.48 487.254 918.984 487.254C920.489 487.254 921.932 486.636 922.996 485.535C924.059 484.434 924.657 482.941 924.657 481.384C924.657 479.827 924.059 478.334 922.996 477.233C921.932 476.132 920.489 475.513 918.984 475.513C917.48 475.513 916.037 476.132 914.973 477.233C913.909 478.334 913.312 479.827 913.312 481.384ZM1026.77 434.42C1026.77 435.977 1027.36 437.47 1028.43 438.571C1029.49 439.672 1030.93 440.29 1032.44 440.29C1033.94 440.29 1035.39 439.672 1036.45 438.571C1037.51 437.47 1038.11 435.977 1038.11 434.42C1038.11 432.863 1037.51 431.37 1036.45 430.269C1035.39 429.168 1033.94 428.549 1032.44 428.549C1030.93 428.549 1029.49 429.168 1028.43 430.269C1027.36 431.37 1026.77 432.863 1026.77 434.42ZM936.003 481.384C936.003 482.941 936.6 484.434 937.664 485.535C938.728 486.636 940.171 487.254 941.675 487.254C943.18 487.254 944.623 486.636 945.687 485.535C946.75 484.434 947.348 482.941 947.348 481.384C947.348 479.827 946.75 478.334 945.687 477.233C944.623 476.132 943.18 475.513 941.675 475.513C940.171 475.513 938.728 476.132 937.664 477.233C936.6 478.334 936.003 479.827 936.003 481.384ZM1117.53 434.42C1117.53 435.977 1118.13 437.47 1119.19 438.571C1120.26 439.672 1121.7 440.29 1123.2 440.29C1124.71 440.29 1126.15 439.672 1127.21 438.571C1128.28 437.47 1128.88 435.977 1128.88 434.42C1128.88 432.863 1128.28 431.37 1127.21 430.269C1126.15 429.168 1124.71 428.549 1123.2 428.549C1121.7 428.549 1120.26 429.168 1119.19 430.269C1118.13 431.37 1117.53 432.863 1117.53 434.42ZM1162.91 434.42C1162.91 435.977 1163.51 437.47 1164.57 438.571C1165.64 439.672 1167.08 440.29 1168.58 440.29C1170.09 440.29 1171.53 439.672 1172.6 438.571C1173.66 437.47 1174.26 435.977 1174.26 434.42C1174.26 432.863 1173.66 431.37 1172.6 430.269C1171.53 429.168 1170.09 428.549 1168.58 428.549C1167.08 428.549 1165.64 429.168 1164.57 430.269C1163.51 431.37 1162.91 432.863 1162.91 434.42Z" fill="url(#paint17_linear_21_71)"/>
<path d="M1304.73 152.634L1282.04 129.152M1304.73 152.634H1327.42M1304.73 152.634H1282.04H1259.35H1236.66L1213.97 129.152M1213.97 129.152L1191.28 105.67M1213.97 129.152H1191.28M1191.28 129.152L1168.58 152.634M1191.28 129.152H1168.58H1145.89H1123.2L1100.51 105.67" stroke="url(#paint18_linear_21_71)" stroke-width="4.17"/>
<path d="M1094.84 105.67C1094.84 107.227 1095.44 108.72 1096.5 109.821C1097.56 110.922 1099.01 111.54 1100.51 111.54C1102.02 111.54 1103.46 110.922 1104.52 109.821C1105.59 108.72 1106.18 107.227 1106.18 105.67C1106.18 104.113 1105.59 102.619 1104.52 101.519C1103.46 100.418 1102.02 99.7991 1100.51 99.7991C1099.01 99.7991 1097.56 100.418 1096.5 101.519C1095.44 102.619 1094.84 104.113 1094.84 105.67ZM1276.37 129.152C1276.37 130.709 1276.96 132.202 1278.03 133.303C1279.09 134.404 1280.54 135.022 1282.04 135.022C1283.54 135.022 1284.99 134.404 1286.05 133.303C1287.11 132.202 1287.71 130.709 1287.71 129.152C1287.71 127.595 1287.11 126.102 1286.05 125.001C1284.99 123.9 1283.54 123.281 1282.04 123.281C1280.54 123.281 1279.09 123.9 1278.03 125.001C1276.96 126.102 1276.37 127.595 1276.37 129.152ZM1185.6 105.67C1185.6 107.227 1186.2 108.72 1187.26 109.821C1188.33 110.922 1189.77 111.54 1191.28 111.54C1192.78 111.54 1194.22 110.922 1195.29 109.821C1196.35 108.72 1196.95 107.227 1196.95 105.67C1196.95 104.113 1196.35 102.619 1195.29 101.519C1194.22 100.418 1192.78 99.7991 1191.28 99.7991C1189.77 99.7991 1188.33 100.418 1187.26 101.519C1186.2 102.619 1185.6 104.113 1185.6 105.67ZM1162.91 152.634C1162.91 154.191 1163.51 155.684 1164.57 156.785C1165.64 157.886 1167.08 158.504 1168.59 158.504C1170.09 158.504 1171.53 157.886 1172.6 156.785C1173.66 155.684 1174.26 154.191 1174.26 152.634C1174.26 151.077 1173.66 149.584 1172.6 148.483C1171.53 147.382 1170.09 146.763 1168.59 146.763C1167.08 146.763 1165.64 147.382 1164.57 148.483C1163.51 149.584 1162.91 151.077 1162.91 152.634Z" fill="url(#paint19_linear_21_71)"/>
</g>
</g>
</g>
<defs>
<linearGradient id="paint0_linear_21_71" x1="522.8" y1="263" x2="1307" y2="263" gradientUnits="userSpaceOnUse">
<stop stop-color="#001038"/>
<stop offset="1" stop-color="#C3DC00"/>
</linearGradient>
<linearGradient id="paint1_linear_21_71" x1="522.8" y1="263" x2="1307" y2="263" gradientUnits="userSpaceOnUse">
<stop stop-color="#001038"/>
<stop offset="1" stop-color="#C3DC00"/>
</linearGradient>
<linearGradient id="paint2_linear_21_71" x1="522.8" y1="263" x2="1307" y2="263" gradientUnits="userSpaceOnUse">
<stop stop-color="#001038"/>
<stop offset="1" stop-color="#C3DC00"/>
</linearGradient>
<linearGradient id="paint3_linear_21_71" x1="522.8" y1="263" x2="1307" y2="263" gradientUnits="userSpaceOnUse">
<stop stop-color="#001038"/>
<stop offset="1" stop-color="#C3DC00"/>
</linearGradient>
<linearGradient id="paint4_linear_21_71" x1="522.8" y1="263" x2="1307" y2="263" gradientUnits="userSpaceOnUse">
<stop stop-color="#001038"/>
<stop offset="1" stop-color="#C3DC00"/>
</linearGradient>
<linearGradient id="paint5_linear_21_71" x1="522.8" y1="263" x2="1307" y2="263" gradientUnits="userSpaceOnUse">
<stop stop-color="#001038"/>
<stop offset="1" stop-color="#C3DC00"/>
</linearGradient>
<linearGradient id="paint6_linear_21_71" x1="522.8" y1="263" x2="1307" y2="263" gradientUnits="userSpaceOnUse">
<stop stop-color="#001038"/>
<stop offset="1" stop-color="#C3DC00"/>
</linearGradient>
<linearGradient id="paint7_linear_21_71" x1="522.8" y1="263" x2="1307" y2="263" gradientUnits="userSpaceOnUse">
<stop stop-color="#001038"/>
<stop offset="1" stop-color="#C3DC00"/>
</linearGradient>
<linearGradient id="paint8_linear_21_71" x1="522.8" y1="263" x2="1307" y2="263" gradientUnits="userSpaceOnUse">
<stop stop-color="#001038"/>
<stop offset="1" stop-color="#C3DC00"/>
</linearGradient>
<linearGradient id="paint9_linear_21_71" x1="522.8" y1="263" x2="1307" y2="263" gradientUnits="userSpaceOnUse">
<stop stop-color="#001038"/>
<stop offset="1" stop-color="#C3DC00"/>
</linearGradient>
<linearGradient id="paint10_linear_21_71" x1="522.8" y1="263" x2="1307" y2="263" gradientUnits="userSpaceOnUse">
<stop stop-color="#001038"/>
<stop offset="1" stop-color="#C3DC00"/>
</linearGradient>
<linearGradient id="paint11_linear_21_71" x1="522.8" y1="263" x2="1307" y2="263" gradientUnits="userSpaceOnUse">
<stop stop-color="#001038"/>
<stop offset="1" stop-color="#C3DC00"/>
</linearGradient>
<linearGradient id="paint12_linear_21_71" x1="522.8" y1="263" x2="1307" y2="263" gradientUnits="userSpaceOnUse">
<stop stop-color="#001038"/>
<stop offset="1" stop-color="#C3DC00"/>
</linearGradient>
<linearGradient id="paint13_linear_21_71" x1="522.8" y1="263" x2="1307" y2="263" gradientUnits="userSpaceOnUse">
<stop stop-color="#001038"/>
<stop offset="1" stop-color="#C3DC00"/>
</linearGradient>
<linearGradient id="paint14_linear_21_71" x1="-nan" y1="-nan" x2="-nan" y2="-nan" gradientUnits="userSpaceOnUse">
<stop stop-color="#001038"/>
<stop offset="1" stop-color="#C3DC00"/>
</linearGradient>
<linearGradient id="paint15_linear_21_71" x1="522.8" y1="263" x2="1307" y2="263" gradientUnits="userSpaceOnUse">
<stop stop-color="#001038"/>
<stop offset="1" stop-color="#C3DC00"/>
</linearGradient>
<linearGradient id="paint16_linear_21_71" x1="522.8" y1="263" x2="1307" y2="263" gradientUnits="userSpaceOnUse">
<stop stop-color="#001038"/>
<stop offset="1" stop-color="#C3DC00"/>
</linearGradient>
<linearGradient id="paint17_linear_21_71" x1="522.8" y1="263" x2="1307" y2="263" gradientUnits="userSpaceOnUse">
<stop stop-color="#001038"/>
<stop offset="1" stop-color="#C3DC00"/>
</linearGradient>
<linearGradient id="paint18_linear_21_71" x1="522.8" y1="263" x2="1307" y2="263" gradientUnits="userSpaceOnUse">
<stop stop-color="#001038"/>
<stop offset="1" stop-color="#C3DC00"/>
</linearGradient>
<linearGradient id="paint19_linear_21_71" x1="522.8" y1="263" x2="1307" y2="263" gradientUnits="userSpaceOnUse">
<stop stop-color="#001038"/>
<stop offset="1" stop-color="#C3DC00"/>
</linearGradient>
<clipPath id="clip0_21_71">
<rect width="1307" height="526" fill="white"/>
</clipPath>
</defs>
</svg>
