<svg width="269" height="110" viewBox="0 0 269 110" fill="none" xmlns="http://www.w3.org/2000/svg">
<path d="M11.3333 104.5C11.3333 101.554 8.94553 99.1667 6 99.1667C3.05447 99.1667 0.666672 101.554 0.666672 104.5C0.666672 107.446 3.05447 109.833 6 109.833C8.94553 109.833 11.3333 107.446 11.3333 104.5ZM167 103.5L6 103.5L6 105.5L167 105.5L167 103.5Z" fill="#C3DC00"/>
<path d="M259.248 9.79033C261.341 11.8625 264.718 11.8454 266.79 9.75205C268.863 7.65871 268.845 4.28187 266.752 2.20967C264.659 0.137477 261.282 0.15462 259.21 2.24796C257.137 4.3413 257.155 7.71813 259.248 9.79033ZM165.711 105.704L263.711 6.70351L262.289 5.29649L164.289 104.296L165.711 105.704Z" fill="#C3DC00"/>
</svg>
